<?xml version="1.0" encoding="UTF-8"?>
<svg id="Layer_2" data-name="Layer 2" xmlns="http://www.w3.org/2000/svg" viewBox="0 0 374.53 73.79">
  <defs>
    <style>
      .cls-1 {
        font-family: Prata-Regular, Prata;
        font-size: 53.6px;
      }

      .cls-2 {
        stroke-width: 0px;
      }
    </style>
  </defs>
  <g id="Page_1" data-name="Page 1">
    <g id="Layer_1-2" data-name="Layer 1">
      <g>
        <path class="cls-2" d="m13.5,7.85L0,15.64v31.38l13.57,7.82,13.57,7.85,13.57-7.85,13.57-7.82V15.64l-13.57-7.82C33.26,3.53,27.14,0,27.09,0c-.05.02-6.14,3.53-13.59,7.85Zm21.24-.91c4.02,2.32,8.71,5.03,10.41,6,1.7.99,3.95,2.29,4.98,2.89l1.92,1.09v28.87l-3.53,2c-1.92,1.11-5.95,3.43-8.93,5.16-10.58,6.12-12.19,7.03-12.46,7.03s-1.88-.91-12.46-7.03c-2.99-1.73-7.01-4.05-8.93-5.16l-3.53-2v-28.87l3.53-2c3.36-1.92,11.32-6.54,17.94-10.36,1.7-.99,3.23-1.8,3.4-1.8.2-.02,3.63,1.88,7.65,4.19Z"/>
        <path class="cls-2" d="m22.82,13.1c-6.98,3.97-13.15,7.62-13.42,7.97-.2.22-.25,3.31-.22,10.49l.07,10.17,8.93,5.18,8.96,5.16,8.68-5.01c4.79-2.76,8.71-5.13,8.76-5.26.07-.22-8.02-5.03-8.44-5.03-.1,0-2.1,1.11-4.44,2.47-2.34,1.36-4.39,2.47-4.59,2.47-.47,0-8.68-4.79-8.78-5.11-.05-.15,1.8-1.33,4.12-2.66,2.29-1.33,4.19-2.49,4.19-2.59s-1.9-1.26-4.19-2.59c-2.32-1.33-4.17-2.54-4.12-2.66.1-.35,8.31-5.11,8.78-5.11.2,0,2.29,1.11,4.64,2.47s4.34,2.47,4.42,2.47c.42,0,8.49-4.84,8.41-5.06-.05-.12-1.04-.79-2.17-1.46-10.49-6.07-14.9-8.54-15.25-8.54-.22,0-2.17,1.01-4.34,2.25Z"/>
      </g>
      <text class="cls-1" transform="translate(68.54 54.38)"><tspan x="0" y="0">Elliott Chen</tspan></text>
    </g>
  </g>
</svg>