<?xml version="1.0" encoding="UTF-8"?>
<svg xmlns="http://www.w3.org/2000/svg" version="1.1" viewBox="0 0 374.5 73.8">
  <defs>
    <style>
      .cls-1 {
        font-family: Prata-Regular, Prata;
        font-size: 53.6px;
      }

      .cls-1, .cls-2 {
        isolation: isolate;
      }
    </style>
  </defs>
  <!-- Generator: Adobe Illustrator 28.6.0, SVG Export Plug-In . SVG Version: 1.2.0 Build 709)  -->
  <g>
    <g id="Layer_2">
      <g id="Page_1">
        <g id="Layer_1-2">
          <g>
            <path d="M13.5,7.8L0,15.6v31.4l13.6,7.8,13.6,7.8,13.6-7.8,13.6-7.8V15.6l-13.6-7.8C33.3,3.5,27.1,0,27.1,0c0,0-6.1,3.5-13.6,7.8ZM34.7,6.9c4,2.3,8.7,5,10.4,6,1.7,1,4,2.3,5,2.9l1.9,1.1v28.9l-3.5,2c-1.9,1.1-6,3.4-8.9,5.2-10.6,6.1-12.2,7-12.5,7s-1.9-.9-12.5-7c-3-1.7-7-4-8.9-5.2l-3.5-2v-28.9l3.5-2c3.4-1.9,11.3-6.5,17.9-10.4,1.7-1,3.2-1.8,3.4-1.8.2,0,3.6,1.9,7.6,4.2h0Z"/>
            <path d="M22.8,13.1c-7,4-13.1,7.6-13.4,8-.2.2-.2,3.3-.2,10.5v10.2c0,0,9,5.2,9,5.2l9,5.2,8.7-5c4.8-2.8,8.7-5.1,8.8-5.3,0-.2-8-5-8.4-5s-2.1,1.1-4.4,2.5c-2.3,1.4-4.4,2.5-4.6,2.5-.5,0-8.7-4.8-8.8-5.1,0-.2,1.8-1.3,4.1-2.7,2.3-1.3,4.2-2.5,4.2-2.6s-1.9-1.3-4.2-2.6c-2.3-1.3-4.2-2.5-4.1-2.7.1-.4,8.3-5.1,8.8-5.1s2.3,1.1,4.6,2.5,4.3,2.5,4.4,2.5c.4,0,8.5-4.8,8.4-5.1,0-.1-1-.8-2.2-1.5-10.5-6.1-14.9-8.5-15.2-8.5s-2.2,1-4.3,2.2h0Z"/>
          </g>
          <g class="cls-2">
            <text class="cls-1" transform="translate(68.5 54.4)"><tspan x="0" y="0">Elliot Chen</tspan></text>
          </g>
        </g>
      </g>
    </g>
  </g>
</svg>